<svg version="1.1" xmlns="http://www.w3.org/2000/svg" viewBox="0 0 90.52 56.87"><path d="M32.89,9.14c-9.98,2.43-20.91,8.22-27.11,16.6c-5.89,7.96-5.5,18.09,2.71,24.2c7.93,5.9,19.59,6.02,29,5.51 c9.89-0.53,19.93-2.25,29.19-5.83c8.06-3.11,17.3-7.88,21.08-16.16c2.61-5.73,1.05-11.95-2.59-16.82 C75.75,4.03,56.74-0.36,41.93,2.48C31.82,4.43,23.14,10.4,17.22,18.75c-0.56,0.79,0.74,1.53,1.29,0.75 C30.07,3.19,51.16-0.47,69.08,6.77c6.86,2.77,13.71,7.48,17.05,14.27c3.39,6.89,0.39,13.8-4.95,18.64 c-7.81,7.08-18.82,10.53-28.98,12.47c-10.6,2.02-21.99,3.02-32.63,0.78c-4.79-1.01-9.51-2.95-12.89-6.58 c-4.07-4.37-4.45-10.58-2.05-15.86C9.31,20.17,22.34,13.42,32.8,10.7c0.16-0.04,0.33-0.08,0.49-0.12 C34.22,10.36,33.83,8.92,32.89,9.14L32.89,9.14z"/></svg>
